<mxfile host="app.diagrams.net" modified="2024-02-15T09:58:25.931Z" agent="Mozilla/5.0 (Windows NT 10.0; Win64; x64) AppleWebKit/537.36 (KHTML, like Gecko) Chrome/121.0.0.0 Safari/537.36 Edg/121.0.0.0" etag="LrZ4ZMvOOF-x5JJVEadL" version="23.1.4" type="device" pages="4">
  <diagram name="Page-1" id="zG6qHPlJz1TqUbqVBR3X">
    <mxGraphModel dx="2074" dy="1124" grid="1" gridSize="10" guides="1" tooltips="1" connect="1" arrows="1" fold="1" page="1" pageScale="1" pageWidth="827" pageHeight="1169" math="0" shadow="0">
      <root>
        <mxCell id="0" />
        <mxCell id="1" parent="0" />
        <mxCell id="X-GCkMMWhM7sKQpAQI9x-4" style="edgeStyle=orthogonalEdgeStyle;rounded=0;orthogonalLoop=1;jettySize=auto;html=1;entryX=0.5;entryY=0;entryDx=0;entryDy=0;endArrow=none;endFill=0;" parent="1" source="X-GCkMMWhM7sKQpAQI9x-1" target="X-GCkMMWhM7sKQpAQI9x-2" edge="1">
          <mxGeometry relative="1" as="geometry" />
        </mxCell>
        <mxCell id="X-GCkMMWhM7sKQpAQI9x-1" value="Procedure TArraySorter.Swap(Var First, Second: Integer);" style="rounded=1;whiteSpace=wrap;html=1;arcSize=50;" parent="1" vertex="1">
          <mxGeometry x="40" y="40" width="150" height="60" as="geometry" />
        </mxCell>
        <mxCell id="X-GCkMMWhM7sKQpAQI9x-5" style="edgeStyle=orthogonalEdgeStyle;rounded=0;orthogonalLoop=1;jettySize=auto;html=1;entryX=0.5;entryY=0;entryDx=0;entryDy=0;endArrow=none;endFill=0;" parent="1" source="X-GCkMMWhM7sKQpAQI9x-2" target="X-GCkMMWhM7sKQpAQI9x-3" edge="1">
          <mxGeometry relative="1" as="geometry" />
        </mxCell>
        <mxCell id="X-GCkMMWhM7sKQpAQI9x-2" value="&lt;div&gt;Temp := First;&lt;/div&gt;&lt;div&gt;&amp;nbsp; &amp;nbsp; First := Second;&lt;/div&gt;&lt;div&gt;&amp;nbsp; &amp;nbsp; Second := Temp;&lt;/div&gt;" style="rounded=0;whiteSpace=wrap;html=1;" parent="1" vertex="1">
          <mxGeometry x="40" y="120" width="150" height="60" as="geometry" />
        </mxCell>
        <mxCell id="X-GCkMMWhM7sKQpAQI9x-3" value="Конец" style="rounded=1;whiteSpace=wrap;html=1;arcSize=50;" parent="1" vertex="1">
          <mxGeometry x="40" y="200" width="150" height="60" as="geometry" />
        </mxCell>
        <mxCell id="X-GCkMMWhM7sKQpAQI9x-18" style="edgeStyle=orthogonalEdgeStyle;rounded=0;orthogonalLoop=1;jettySize=auto;html=1;entryX=0.5;entryY=0;entryDx=0;entryDy=0;endArrow=none;endFill=0;" parent="1" source="X-GCkMMWhM7sKQpAQI9x-6" target="X-GCkMMWhM7sKQpAQI9x-7" edge="1">
          <mxGeometry relative="1" as="geometry" />
        </mxCell>
        <mxCell id="X-GCkMMWhM7sKQpAQI9x-6" value="Function TArraySorter.Partition(Var Arr: TArray; First, Last: Integer): Integer;" style="rounded=1;whiteSpace=wrap;html=1;arcSize=50;" parent="1" vertex="1">
          <mxGeometry x="210" y="40" width="150" height="60" as="geometry" />
        </mxCell>
        <mxCell id="X-GCkMMWhM7sKQpAQI9x-19" style="edgeStyle=orthogonalEdgeStyle;rounded=0;orthogonalLoop=1;jettySize=auto;html=1;entryX=0.5;entryY=0;entryDx=0;entryDy=0;endArrow=none;endFill=0;" parent="1" source="X-GCkMMWhM7sKQpAQI9x-7" target="X-GCkMMWhM7sKQpAQI9x-8" edge="1">
          <mxGeometry relative="1" as="geometry" />
        </mxCell>
        <mxCell id="X-GCkMMWhM7sKQpAQI9x-7" value="Pivot := Arr[Last];&lt;br&gt;I := First - 1;" style="rounded=0;whiteSpace=wrap;html=1;" parent="1" vertex="1">
          <mxGeometry x="210" y="120" width="150" height="60" as="geometry" />
        </mxCell>
        <mxCell id="X-GCkMMWhM7sKQpAQI9x-20" style="edgeStyle=orthogonalEdgeStyle;rounded=0;orthogonalLoop=1;jettySize=auto;html=1;entryX=0.5;entryY=0;entryDx=0;entryDy=0;endArrow=none;endFill=0;" parent="1" source="X-GCkMMWhM7sKQpAQI9x-8" target="X-GCkMMWhM7sKQpAQI9x-12" edge="1">
          <mxGeometry relative="1" as="geometry" />
        </mxCell>
        <mxCell id="X-GCkMMWhM7sKQpAQI9x-8" value="A1&lt;br&gt;J := First To Last" style="shape=loopLimit;whiteSpace=wrap;html=1;" parent="1" vertex="1">
          <mxGeometry x="210" y="200" width="150" height="60" as="geometry" />
        </mxCell>
        <mxCell id="X-GCkMMWhM7sKQpAQI9x-9" value="" style="shape=loopLimit;whiteSpace=wrap;html=1;rotation=-180;" parent="1" vertex="1">
          <mxGeometry x="210" y="480" width="150" height="60" as="geometry" />
        </mxCell>
        <mxCell id="X-GCkMMWhM7sKQpAQI9x-24" style="edgeStyle=orthogonalEdgeStyle;rounded=0;orthogonalLoop=1;jettySize=auto;html=1;entryX=0.5;entryY=0;entryDx=0;entryDy=0;endArrow=none;endFill=0;" parent="1" source="X-GCkMMWhM7sKQpAQI9x-10" target="X-GCkMMWhM7sKQpAQI9x-22" edge="1">
          <mxGeometry relative="1" as="geometry" />
        </mxCell>
        <mxCell id="X-GCkMMWhM7sKQpAQI9x-10" value="I&lt;br&gt;A1" style="text;html=1;strokeColor=none;fillColor=none;align=center;verticalAlign=middle;whiteSpace=wrap;rounded=0;" parent="1" vertex="1">
          <mxGeometry x="210" y="480" width="150" height="60" as="geometry" />
        </mxCell>
        <mxCell id="X-GCkMMWhM7sKQpAQI9x-11" style="edgeStyle=orthogonalEdgeStyle;rounded=0;orthogonalLoop=1;jettySize=auto;html=1;entryX=0.5;entryY=0;entryDx=0;entryDy=0;endArrow=none;endFill=0;" parent="1" source="X-GCkMMWhM7sKQpAQI9x-12" edge="1">
          <mxGeometry relative="1" as="geometry">
            <mxPoint x="485" y="360" as="targetPoint" />
          </mxGeometry>
        </mxCell>
        <mxCell id="X-GCkMMWhM7sKQpAQI9x-21" style="edgeStyle=orthogonalEdgeStyle;rounded=0;orthogonalLoop=1;jettySize=auto;html=1;exitX=0.5;exitY=1;exitDx=0;exitDy=0;entryX=0.5;entryY=0;entryDx=0;entryDy=0;endArrow=none;endFill=0;" parent="1" source="X-GCkMMWhM7sKQpAQI9x-12" target="X-GCkMMWhM7sKQpAQI9x-10" edge="1">
          <mxGeometry relative="1" as="geometry" />
        </mxCell>
        <mxCell id="X-GCkMMWhM7sKQpAQI9x-12" value="Arr[J] &amp;lt; Pivot" style="rhombus;whiteSpace=wrap;html=1;" parent="1" vertex="1">
          <mxGeometry x="210" y="280" width="150" height="60" as="geometry" />
        </mxCell>
        <mxCell id="X-GCkMMWhM7sKQpAQI9x-14" value="" style="endArrow=classic;html=1;rounded=0;exitX=0.5;exitY=1;exitDx=0;exitDy=0;" parent="1" edge="1">
          <mxGeometry width="50" height="50" relative="1" as="geometry">
            <mxPoint x="485" y="400" as="sourcePoint" />
            <mxPoint x="285" y="450" as="targetPoint" />
            <Array as="points">
              <mxPoint x="485" y="450" />
            </Array>
          </mxGeometry>
        </mxCell>
        <mxCell id="X-GCkMMWhM7sKQpAQI9x-15" value="Да" style="text;html=1;align=center;verticalAlign=middle;resizable=0;points=[];autosize=1;strokeColor=none;fillColor=none;" parent="1" vertex="1">
          <mxGeometry x="355" y="280" width="40" height="30" as="geometry" />
        </mxCell>
        <mxCell id="X-GCkMMWhM7sKQpAQI9x-17" value="&lt;div&gt;Inc(I);&lt;/div&gt;&lt;div&gt;Swap(Arr[I], Arr[J]);&lt;/div&gt;" style="rounded=0;whiteSpace=wrap;html=1;" parent="1" vertex="1">
          <mxGeometry x="410" y="360" width="150" height="60" as="geometry" />
        </mxCell>
        <mxCell id="X-GCkMMWhM7sKQpAQI9x-25" style="edgeStyle=orthogonalEdgeStyle;rounded=0;orthogonalLoop=1;jettySize=auto;html=1;entryX=0.5;entryY=0;entryDx=0;entryDy=0;endArrow=none;endFill=0;" parent="1" source="X-GCkMMWhM7sKQpAQI9x-22" target="X-GCkMMWhM7sKQpAQI9x-23" edge="1">
          <mxGeometry relative="1" as="geometry" />
        </mxCell>
        <mxCell id="X-GCkMMWhM7sKQpAQI9x-22" value="Inc(I);&#xa;    Swap(Arr[I], Arr[Last]);&#xa;    Partition := I;" style="rounded=0;whiteSpace=wrap;html=1;" parent="1" vertex="1">
          <mxGeometry x="210" y="560" width="150" height="60" as="geometry" />
        </mxCell>
        <mxCell id="X-GCkMMWhM7sKQpAQI9x-23" value="Конец" style="rounded=1;whiteSpace=wrap;html=1;arcSize=50;" parent="1" vertex="1">
          <mxGeometry x="210" y="640" width="150" height="60" as="geometry" />
        </mxCell>
        <mxCell id="X-GCkMMWhM7sKQpAQI9x-42" style="edgeStyle=orthogonalEdgeStyle;rounded=0;orthogonalLoop=1;jettySize=auto;html=1;entryX=0.5;entryY=0;entryDx=0;entryDy=0;endArrow=none;endFill=0;" parent="1" source="X-GCkMMWhM7sKQpAQI9x-26" target="X-GCkMMWhM7sKQpAQI9x-29" edge="1">
          <mxGeometry relative="1" as="geometry" />
        </mxCell>
        <mxCell id="X-GCkMMWhM7sKQpAQI9x-26" value="Procedure TArraySorter.QuickSort(Var Arr: TArray; First, Last: Integer);" style="rounded=1;whiteSpace=wrap;html=1;arcSize=50;" parent="1" vertex="1">
          <mxGeometry x="580" y="30" width="150" height="60" as="geometry" />
        </mxCell>
        <mxCell id="X-GCkMMWhM7sKQpAQI9x-27" style="edgeStyle=orthogonalEdgeStyle;rounded=0;orthogonalLoop=1;jettySize=auto;html=1;entryX=0.5;entryY=0;entryDx=0;entryDy=0;endArrow=none;endFill=0;" parent="1" source="X-GCkMMWhM7sKQpAQI9x-29" target="X-GCkMMWhM7sKQpAQI9x-34" edge="1">
          <mxGeometry relative="1" as="geometry">
            <mxPoint x="855" y="190" as="targetPoint" />
          </mxGeometry>
        </mxCell>
        <mxCell id="X-GCkMMWhM7sKQpAQI9x-28" style="edgeStyle=orthogonalEdgeStyle;rounded=0;orthogonalLoop=1;jettySize=auto;html=1;exitX=0.5;exitY=1;exitDx=0;exitDy=0;endArrow=none;endFill=0;" parent="1" source="X-GCkMMWhM7sKQpAQI9x-29" edge="1">
          <mxGeometry relative="1" as="geometry">
            <mxPoint x="655" y="280" as="targetPoint" />
          </mxGeometry>
        </mxCell>
        <mxCell id="X-GCkMMWhM7sKQpAQI9x-29" value="Last &amp;lt;= First" style="rhombus;whiteSpace=wrap;html=1;" parent="1" vertex="1">
          <mxGeometry x="580" y="110" width="150" height="60" as="geometry" />
        </mxCell>
        <mxCell id="X-GCkMMWhM7sKQpAQI9x-30" value="" style="endArrow=classic;html=1;rounded=0;exitX=0.5;exitY=1;exitDx=0;exitDy=0;" parent="1" source="X-GCkMMWhM7sKQpAQI9x-34" edge="1">
          <mxGeometry width="50" height="50" relative="1" as="geometry">
            <mxPoint x="855" y="230" as="sourcePoint" />
            <mxPoint x="655" y="260" as="targetPoint" />
            <Array as="points">
              <mxPoint x="840" y="260" />
            </Array>
          </mxGeometry>
        </mxCell>
        <mxCell id="X-GCkMMWhM7sKQpAQI9x-31" value="Да" style="text;html=1;align=center;verticalAlign=middle;resizable=0;points=[];autosize=1;strokeColor=none;fillColor=none;" parent="1" vertex="1">
          <mxGeometry x="725" y="110" width="40" height="30" as="geometry" />
        </mxCell>
        <mxCell id="X-GCkMMWhM7sKQpAQI9x-34" value="Exit();" style="shape=process;whiteSpace=wrap;html=1;backgroundOutline=1;" parent="1" vertex="1">
          <mxGeometry x="765" y="180" width="150" height="60" as="geometry" />
        </mxCell>
        <mxCell id="X-GCkMMWhM7sKQpAQI9x-38" style="edgeStyle=orthogonalEdgeStyle;rounded=0;orthogonalLoop=1;jettySize=auto;html=1;entryX=0.5;entryY=0;entryDx=0;entryDy=0;endArrow=none;endFill=0;" parent="1" source="X-GCkMMWhM7sKQpAQI9x-35" target="X-GCkMMWhM7sKQpAQI9x-36" edge="1">
          <mxGeometry relative="1" as="geometry" />
        </mxCell>
        <mxCell id="X-GCkMMWhM7sKQpAQI9x-35" value="Pivot := Partition(Arr, First, Last);" style="rounded=0;whiteSpace=wrap;html=1;" parent="1" vertex="1">
          <mxGeometry x="580" y="280" width="150" height="60" as="geometry" />
        </mxCell>
        <mxCell id="X-GCkMMWhM7sKQpAQI9x-39" style="edgeStyle=orthogonalEdgeStyle;rounded=0;orthogonalLoop=1;jettySize=auto;html=1;entryX=0.5;entryY=0;entryDx=0;entryDy=0;endArrow=none;endFill=0;" parent="1" source="X-GCkMMWhM7sKQpAQI9x-36" target="X-GCkMMWhM7sKQpAQI9x-37" edge="1">
          <mxGeometry relative="1" as="geometry" />
        </mxCell>
        <mxCell id="X-GCkMMWhM7sKQpAQI9x-36" value="QuickSort(Arr, First, Pivot - 1);" style="shape=process;whiteSpace=wrap;html=1;backgroundOutline=1;" parent="1" vertex="1">
          <mxGeometry x="580" y="360" width="150" height="60" as="geometry" />
        </mxCell>
        <mxCell id="X-GCkMMWhM7sKQpAQI9x-41" style="edgeStyle=orthogonalEdgeStyle;rounded=0;orthogonalLoop=1;jettySize=auto;html=1;entryX=0.5;entryY=0;entryDx=0;entryDy=0;endArrow=none;endFill=0;" parent="1" source="X-GCkMMWhM7sKQpAQI9x-37" target="X-GCkMMWhM7sKQpAQI9x-40" edge="1">
          <mxGeometry relative="1" as="geometry" />
        </mxCell>
        <mxCell id="X-GCkMMWhM7sKQpAQI9x-37" value="QuickSort(Arr, Pivot + 1, Last);" style="shape=process;whiteSpace=wrap;html=1;backgroundOutline=1;" parent="1" vertex="1">
          <mxGeometry x="580" y="440" width="150" height="60" as="geometry" />
        </mxCell>
        <mxCell id="X-GCkMMWhM7sKQpAQI9x-40" value="Конец" style="rounded=1;whiteSpace=wrap;html=1;arcSize=50;" parent="1" vertex="1">
          <mxGeometry x="580" y="520" width="150" height="60" as="geometry" />
        </mxCell>
        <mxCell id="X-GCkMMWhM7sKQpAQI9x-46" style="edgeStyle=orthogonalEdgeStyle;rounded=0;orthogonalLoop=1;jettySize=auto;html=1;entryX=0.5;entryY=0;entryDx=0;entryDy=0;endArrow=none;endFill=0;" parent="1" source="X-GCkMMWhM7sKQpAQI9x-43" target="X-GCkMMWhM7sKQpAQI9x-44" edge="1">
          <mxGeometry relative="1" as="geometry" />
        </mxCell>
        <mxCell id="X-GCkMMWhM7sKQpAQI9x-43" value="Constructor TArraySorter.Create(Size: Integer);" style="rounded=1;whiteSpace=wrap;html=1;arcSize=50;" parent="1" vertex="1">
          <mxGeometry x="40" y="280" width="150" height="60" as="geometry" />
        </mxCell>
        <mxCell id="X-GCkMMWhM7sKQpAQI9x-47" style="edgeStyle=orthogonalEdgeStyle;rounded=0;orthogonalLoop=1;jettySize=auto;html=1;entryX=0.5;entryY=0;entryDx=0;entryDy=0;endArrow=none;endFill=0;" parent="1" source="X-GCkMMWhM7sKQpAQI9x-44" target="X-GCkMMWhM7sKQpAQI9x-45" edge="1">
          <mxGeometry relative="1" as="geometry" />
        </mxCell>
        <mxCell id="X-GCkMMWhM7sKQpAQI9x-44" value="&lt;div&gt;Self.Size := Size;&lt;/div&gt;&lt;div&gt;&amp;nbsp; &amp;nbsp; SetLength(UserArray, Size);&lt;/div&gt;" style="rounded=0;whiteSpace=wrap;html=1;" parent="1" vertex="1">
          <mxGeometry x="40" y="360" width="150" height="60" as="geometry" />
        </mxCell>
        <mxCell id="X-GCkMMWhM7sKQpAQI9x-45" value="Конец" style="rounded=1;whiteSpace=wrap;html=1;arcSize=50;" parent="1" vertex="1">
          <mxGeometry x="40" y="440" width="150" height="60" as="geometry" />
        </mxCell>
        <mxCell id="2TeeF6bpfW5iacUfF8Es-1" style="edgeStyle=orthogonalEdgeStyle;rounded=0;orthogonalLoop=1;jettySize=auto;html=1;entryX=0.5;entryY=0;entryDx=0;entryDy=0;endArrow=none;endFill=0;" parent="1" source="2TeeF6bpfW5iacUfF8Es-2" target="2TeeF6bpfW5iacUfF8Es-4" edge="1">
          <mxGeometry relative="1" as="geometry" />
        </mxCell>
        <mxCell id="2TeeF6bpfW5iacUfF8Es-2" value="Procedure TuVCLMain.&lt;br&gt;bitBtSortArrayClick(Sender: TObject);" style="rounded=1;whiteSpace=wrap;html=1;arcSize=50;" parent="1" vertex="1">
          <mxGeometry x="30" y="730" width="150" height="60" as="geometry" />
        </mxCell>
        <mxCell id="2TeeF6bpfW5iacUfF8Es-3" style="edgeStyle=orthogonalEdgeStyle;rounded=0;orthogonalLoop=1;jettySize=auto;html=1;entryX=0.5;entryY=0;entryDx=0;entryDy=0;endArrow=none;endFill=0;" parent="1" source="2TeeF6bpfW5iacUfF8Es-4" target="2TeeF6bpfW5iacUfF8Es-6" edge="1">
          <mxGeometry relative="1" as="geometry" />
        </mxCell>
        <mxCell id="2TeeF6bpfW5iacUfF8Es-4" value="&lt;div&gt;&lt;font style=&quot;font-size: 10px;&quot;&gt;UserArray := ArraySorter.GetUserArray();&lt;span style=&quot;background-color: initial;&quot;&gt;&amp;nbsp; &amp;nbsp;ArraySorter.QuickSort(UserArray, 0, High(UserArray));&lt;/span&gt;&lt;/font&gt;&lt;/div&gt;" style="rounded=0;whiteSpace=wrap;html=1;" parent="1" vertex="1">
          <mxGeometry x="30" y="810" width="150" height="60" as="geometry" />
        </mxCell>
        <mxCell id="2TeeF6bpfW5iacUfF8Es-5" style="edgeStyle=orthogonalEdgeStyle;rounded=0;orthogonalLoop=1;jettySize=auto;html=1;entryX=0.5;entryY=0;entryDx=0;entryDy=0;endArrow=none;endFill=0;" parent="1" source="2TeeF6bpfW5iacUfF8Es-6" target="2TeeF6bpfW5iacUfF8Es-7" edge="1">
          <mxGeometry relative="1" as="geometry" />
        </mxCell>
        <mxCell id="2TeeF6bpfW5iacUfF8Es-6" value="&lt;div&gt;&lt;font style=&quot;font-size: 10px;&quot;&gt;bitbtShowList.Enabled := True;&lt;/font&gt;&lt;/div&gt;&lt;div&gt;&lt;span style=&quot;font-size: 10px;&quot;&gt;&amp;nbsp; &amp;nbsp; btSaveFile.Enabled := True;&lt;/span&gt;&lt;/div&gt;&lt;div&gt;&lt;span style=&quot;font-size: 10px;&quot;&gt;&amp;nbsp; &amp;nbsp; IsFileSaved := False;&lt;/span&gt;&lt;/div&gt;&lt;div&gt;&lt;span style=&quot;font-size: 10px;&quot;&gt;&amp;nbsp; &amp;nbsp; IsSortButtonPressed := True;&lt;/span&gt;&lt;/div&gt;" style="rounded=0;whiteSpace=wrap;html=1;" parent="1" vertex="1">
          <mxGeometry x="30" y="890" width="150" height="60" as="geometry" />
        </mxCell>
        <mxCell id="2TeeF6bpfW5iacUfF8Es-7" value="Конец" style="rounded=1;whiteSpace=wrap;html=1;arcSize=50;" parent="1" vertex="1">
          <mxGeometry x="30" y="970" width="150" height="60" as="geometry" />
        </mxCell>
        <mxCell id="2TeeF6bpfW5iacUfF8Es-8" style="edgeStyle=orthogonalEdgeStyle;rounded=0;orthogonalLoop=1;jettySize=auto;html=1;entryX=0.5;entryY=0;entryDx=0;entryDy=0;endArrow=none;endFill=0;" parent="1" source="2TeeF6bpfW5iacUfF8Es-9" target="2TeeF6bpfW5iacUfF8Es-13" edge="1">
          <mxGeometry relative="1" as="geometry" />
        </mxCell>
        <mxCell id="2TeeF6bpfW5iacUfF8Es-9" value="Procedure TuVCLMain.&lt;br&gt;bitBtShowListClick(Sender: TObject);" style="rounded=1;whiteSpace=wrap;html=1;arcSize=50;" parent="1" vertex="1">
          <mxGeometry x="220" y="730" width="150" height="60" as="geometry" />
        </mxCell>
        <mxCell id="2TeeF6bpfW5iacUfF8Es-10" style="edgeStyle=orthogonalEdgeStyle;rounded=0;orthogonalLoop=1;jettySize=auto;html=1;entryX=0.5;entryY=0;entryDx=0;entryDy=0;endArrow=none;endFill=0;" parent="1" source="2TeeF6bpfW5iacUfF8Es-11" target="2TeeF6bpfW5iacUfF8Es-14" edge="1">
          <mxGeometry relative="1" as="geometry" />
        </mxCell>
        <mxCell id="2TeeF6bpfW5iacUfF8Es-11" value="&lt;div&gt;&lt;font style=&quot;font-size: 10px;&quot;&gt;&lt;span style=&quot;background-color: initial;&quot;&gt;&amp;nbsp;uVCLOutputSortedArray.&lt;/span&gt;&lt;/font&gt;&lt;/div&gt;&lt;div&gt;&lt;font style=&quot;font-size: 10px;&quot;&gt;&lt;span style=&quot;background-color: initial;&quot;&gt;ShowModal;&lt;/span&gt;&lt;br&gt;&lt;/font&gt;&lt;/div&gt;&lt;div&gt;&lt;font style=&quot;font-size: 10px;&quot;&gt;&amp;nbsp;uVCLOutputSortedArray.Destroy;&lt;/font&gt;&lt;/div&gt;&lt;div&gt;&lt;font style=&quot;font-size: 10px;&quot;&gt;&amp;nbsp;uVCLOutputSortedArray := Nil;&lt;/font&gt;&lt;/div&gt;" style="rounded=0;whiteSpace=wrap;html=1;" parent="1" vertex="1">
          <mxGeometry x="220" y="890" width="150" height="60" as="geometry" />
        </mxCell>
        <mxCell id="2TeeF6bpfW5iacUfF8Es-12" style="edgeStyle=orthogonalEdgeStyle;rounded=0;orthogonalLoop=1;jettySize=auto;html=1;entryX=0.5;entryY=0;entryDx=0;entryDy=0;endArrow=none;endFill=0;" parent="1" source="2TeeF6bpfW5iacUfF8Es-13" target="2TeeF6bpfW5iacUfF8Es-11" edge="1">
          <mxGeometry relative="1" as="geometry" />
        </mxCell>
        <mxCell id="2TeeF6bpfW5iacUfF8Es-13" value="&lt;font style=&quot;font-size: 10px;&quot;&gt;Application.&lt;br&gt;CreateForm&lt;br&gt;(TuVCLOutputSortedArray, uVCLOutputSortedArray);&lt;/font&gt;" style="shape=process;whiteSpace=wrap;html=1;backgroundOutline=1;" parent="1" vertex="1">
          <mxGeometry x="220" y="810" width="150" height="60" as="geometry" />
        </mxCell>
        <mxCell id="2TeeF6bpfW5iacUfF8Es-14" value="Конец" style="rounded=1;whiteSpace=wrap;html=1;arcSize=50;" parent="1" vertex="1">
          <mxGeometry x="220" y="970" width="150" height="60" as="geometry" />
        </mxCell>
        <mxCell id="UmAA_H0NjSp_p2dc0q3q-1" style="edgeStyle=orthogonalEdgeStyle;rounded=0;orthogonalLoop=1;jettySize=auto;html=1;entryX=0.5;entryY=0;entryDx=0;entryDy=0;endArrow=none;endFill=0;" parent="1" source="UmAA_H0NjSp_p2dc0q3q-2" edge="1">
          <mxGeometry relative="1" as="geometry">
            <mxPoint x="480" y="560" as="targetPoint" />
          </mxGeometry>
        </mxCell>
        <mxCell id="UmAA_H0NjSp_p2dc0q3q-2" value="Procedure TFileWriter.OutputArray(Var Arr: TArray; Const SIZE: Integer);" style="rounded=1;whiteSpace=wrap;html=1;arcSize=50;" parent="1" vertex="1">
          <mxGeometry x="400" y="480" width="160" height="60" as="geometry" />
        </mxCell>
        <mxCell id="UmAA_H0NjSp_p2dc0q3q-3" value="Конец" style="rounded=1;whiteSpace=wrap;html=1;arcSize=50;" parent="1" vertex="1">
          <mxGeometry x="400" y="959" width="160" height="60" as="geometry" />
        </mxCell>
        <mxCell id="UmAA_H0NjSp_p2dc0q3q-4" style="edgeStyle=orthogonalEdgeStyle;rounded=0;orthogonalLoop=1;jettySize=auto;html=1;entryX=0.5;entryY=0;entryDx=0;entryDy=0;endArrow=none;endFill=0;" parent="1" source="UmAA_H0NjSp_p2dc0q3q-5" target="UmAA_H0NjSp_p2dc0q3q-10" edge="1">
          <mxGeometry relative="1" as="geometry" />
        </mxCell>
        <mxCell id="UmAA_H0NjSp_p2dc0q3q-5" value="Rewrite(OutFile);" style="rounded=0;whiteSpace=wrap;html=1;" parent="1" vertex="1">
          <mxGeometry x="400" y="560" width="160" height="60" as="geometry" />
        </mxCell>
        <mxCell id="UmAA_H0NjSp_p2dc0q3q-6" value="CloseFile(OutFile);" style="rounded=0;whiteSpace=wrap;html=1;" parent="1" vertex="1">
          <mxGeometry x="400" y="880" width="160" height="60" as="geometry" />
        </mxCell>
        <mxCell id="UmAA_H0NjSp_p2dc0q3q-7" style="edgeStyle=orthogonalEdgeStyle;rounded=0;orthogonalLoop=1;jettySize=auto;html=1;entryX=0.5;entryY=0;entryDx=0;entryDy=0;endArrow=none;endFill=0;" parent="1" target="UmAA_H0NjSp_p2dc0q3q-3" edge="1">
          <mxGeometry relative="1" as="geometry">
            <mxPoint x="480" y="940" as="sourcePoint" />
          </mxGeometry>
        </mxCell>
        <mxCell id="UmAA_H0NjSp_p2dc0q3q-8" style="edgeStyle=orthogonalEdgeStyle;rounded=0;orthogonalLoop=1;jettySize=auto;html=1;entryX=0.5;entryY=0;entryDx=0;entryDy=0;endArrow=none;endFill=0;" parent="1" edge="1">
          <mxGeometry relative="1" as="geometry">
            <mxPoint x="480" y="880" as="targetPoint" />
            <mxPoint x="480" y="860" as="sourcePoint" />
          </mxGeometry>
        </mxCell>
        <mxCell id="UmAA_H0NjSp_p2dc0q3q-9" style="edgeStyle=orthogonalEdgeStyle;rounded=0;orthogonalLoop=1;jettySize=auto;html=1;entryX=0.5;entryY=0;entryDx=0;entryDy=0;endArrow=none;endFill=0;" parent="1" source="UmAA_H0NjSp_p2dc0q3q-10" edge="1">
          <mxGeometry relative="1" as="geometry">
            <mxPoint x="480" y="720" as="targetPoint" />
          </mxGeometry>
        </mxCell>
        <mxCell id="UmAA_H0NjSp_p2dc0q3q-10" value="A1&lt;br&gt;I := 0 To&amp;nbsp;SIZE" style="shape=loopLimit;whiteSpace=wrap;html=1;" parent="1" vertex="1">
          <mxGeometry x="400" y="640" width="160" height="60" as="geometry" />
        </mxCell>
        <mxCell id="UmAA_H0NjSp_p2dc0q3q-11" value="" style="shape=loopLimit;whiteSpace=wrap;html=1;rotation=-180;" parent="1" vertex="1">
          <mxGeometry x="400" y="800" width="160" height="60" as="geometry" />
        </mxCell>
        <mxCell id="UmAA_H0NjSp_p2dc0q3q-12" value="I&lt;br&gt;A1" style="text;html=1;strokeColor=none;fillColor=none;align=center;verticalAlign=middle;whiteSpace=wrap;rounded=0;" parent="1" vertex="1">
          <mxGeometry x="400" y="800" width="160" height="60" as="geometry" />
        </mxCell>
        <mxCell id="UmAA_H0NjSp_p2dc0q3q-13" style="edgeStyle=orthogonalEdgeStyle;rounded=0;orthogonalLoop=1;jettySize=auto;html=1;entryX=0.5;entryY=0;entryDx=0;entryDy=0;endArrow=none;endFill=0;" parent="1" source="UmAA_H0NjSp_p2dc0q3q-14" target="UmAA_H0NjSp_p2dc0q3q-12" edge="1">
          <mxGeometry relative="1" as="geometry" />
        </mxCell>
        <mxCell id="UmAA_H0NjSp_p2dc0q3q-14" value="Вывод&amp;nbsp;&lt;br&gt;Arr[I - 1]" style="shape=parallelogram;perimeter=parallelogramPerimeter;whiteSpace=wrap;html=1;fixedSize=1;" parent="1" vertex="1">
          <mxGeometry x="400" y="720" width="160" height="60" as="geometry" />
        </mxCell>
      </root>
    </mxGraphModel>
  </diagram>
  <diagram id="pUofw_x1VhK3y7i3A7GY" name="Page-2">
    <mxGraphModel dx="2901" dy="1124" grid="1" gridSize="10" guides="1" tooltips="1" connect="1" arrows="1" fold="1" page="1" pageScale="1" pageWidth="827" pageHeight="1169" math="0" shadow="0">
      <root>
        <mxCell id="0" />
        <mxCell id="1" parent="0" />
        <mxCell id="YUHJ7ZKorTNUK1rcZvjQ-1" style="edgeStyle=orthogonalEdgeStyle;rounded=0;orthogonalLoop=1;jettySize=auto;html=1;entryX=0.5;entryY=0;entryDx=0;entryDy=0;endArrow=none;endFill=0;" parent="1" source="YUHJ7ZKorTNUK1rcZvjQ-2" edge="1">
          <mxGeometry relative="1" as="geometry">
            <mxPoint x="120" y="100" as="targetPoint" />
          </mxGeometry>
        </mxCell>
        <mxCell id="YUHJ7ZKorTNUK1rcZvjQ-2" value="Function TFileReader.InputSize: Integer;" style="rounded=1;whiteSpace=wrap;html=1;arcSize=50;" parent="1" vertex="1">
          <mxGeometry x="40" y="20" width="160" height="60" as="geometry" />
        </mxCell>
        <mxCell id="YUHJ7ZKorTNUK1rcZvjQ-3" value="Конец" style="rounded=1;whiteSpace=wrap;html=1;arcSize=50;" parent="1" vertex="1">
          <mxGeometry x="40" y="804" width="160" height="60" as="geometry" />
        </mxCell>
        <mxCell id="YUHJ7ZKorTNUK1rcZvjQ-4" style="edgeStyle=orthogonalEdgeStyle;rounded=0;orthogonalLoop=1;jettySize=auto;html=1;entryX=0.5;entryY=0;entryDx=0;entryDy=0;endArrow=none;endFill=0;" parent="1" target="YUHJ7ZKorTNUK1rcZvjQ-3" edge="1">
          <mxGeometry relative="1" as="geometry">
            <mxPoint x="120" y="785" as="sourcePoint" />
          </mxGeometry>
        </mxCell>
        <mxCell id="YUHJ7ZKorTNUK1rcZvjQ-5" style="edgeStyle=orthogonalEdgeStyle;rounded=0;orthogonalLoop=1;jettySize=auto;html=1;entryX=0.5;entryY=0;entryDx=0;entryDy=0;endArrow=none;endFill=0;" parent="1" source="YUHJ7ZKorTNUK1rcZvjQ-6" target="YUHJ7ZKorTNUK1rcZvjQ-8" edge="1">
          <mxGeometry relative="1" as="geometry" />
        </mxCell>
        <mxCell id="YUHJ7ZKorTNUK1rcZvjQ-6" value="&lt;div&gt;Size := 0;&lt;/div&gt;&lt;div&gt;Reset(InFile);&lt;/div&gt;" style="rounded=0;whiteSpace=wrap;html=1;" parent="1" vertex="1">
          <mxGeometry x="40" y="100" width="160" height="60" as="geometry" />
        </mxCell>
        <mxCell id="YUHJ7ZKorTNUK1rcZvjQ-7" style="edgeStyle=orthogonalEdgeStyle;rounded=0;orthogonalLoop=1;jettySize=auto;html=1;entryX=0.5;entryY=0;entryDx=0;entryDy=0;endArrow=none;endFill=0;" parent="1" source="YUHJ7ZKorTNUK1rcZvjQ-8" target="YUHJ7ZKorTNUK1rcZvjQ-11" edge="1">
          <mxGeometry relative="1" as="geometry" />
        </mxCell>
        <mxCell id="YUHJ7ZKorTNUK1rcZvjQ-8" value="Read(InFile, Size);" style="shape=parallelogram;perimeter=parallelogramPerimeter;whiteSpace=wrap;html=1;fixedSize=1;" parent="1" vertex="1">
          <mxGeometry x="40" y="180" width="160" height="60" as="geometry" />
        </mxCell>
        <mxCell id="YUHJ7ZKorTNUK1rcZvjQ-9" style="edgeStyle=orthogonalEdgeStyle;rounded=0;orthogonalLoop=1;jettySize=auto;html=1;entryX=0.5;entryY=0;entryDx=0;entryDy=0;endArrow=none;endFill=0;" parent="1" source="YUHJ7ZKorTNUK1rcZvjQ-11" target="YUHJ7ZKorTNUK1rcZvjQ-13" edge="1">
          <mxGeometry relative="1" as="geometry">
            <mxPoint x="325" y="320" as="targetPoint" />
          </mxGeometry>
        </mxCell>
        <mxCell id="YUHJ7ZKorTNUK1rcZvjQ-10" style="edgeStyle=orthogonalEdgeStyle;rounded=0;orthogonalLoop=1;jettySize=auto;html=1;exitX=0.5;exitY=1;exitDx=0;exitDy=0;entryX=0.5;entryY=0;entryDx=0;entryDy=0;endArrow=none;endFill=0;" parent="1" source="YUHJ7ZKorTNUK1rcZvjQ-11" target="YUHJ7ZKorTNUK1rcZvjQ-19" edge="1">
          <mxGeometry relative="1" as="geometry" />
        </mxCell>
        <mxCell id="YUHJ7ZKorTNUK1rcZvjQ-11" value="Except" style="rhombus;whiteSpace=wrap;html=1;" parent="1" vertex="1">
          <mxGeometry x="40" y="260" width="160" height="60" as="geometry" />
        </mxCell>
        <mxCell id="YUHJ7ZKorTNUK1rcZvjQ-12" style="edgeStyle=orthogonalEdgeStyle;rounded=0;orthogonalLoop=1;jettySize=auto;html=1;entryX=0.5;entryY=0;entryDx=0;entryDy=0;endArrow=none;endFill=0;" parent="1" source="YUHJ7ZKorTNUK1rcZvjQ-13" target="YUHJ7ZKorTNUK1rcZvjQ-16" edge="1">
          <mxGeometry relative="1" as="geometry" />
        </mxCell>
        <mxCell id="YUHJ7ZKorTNUK1rcZvjQ-13" value="Вывод о некорректном вводе" style="shape=parallelogram;perimeter=parallelogramPerimeter;whiteSpace=wrap;html=1;fixedSize=1;" parent="1" vertex="1">
          <mxGeometry x="250" y="340" width="160" height="60" as="geometry" />
        </mxCell>
        <mxCell id="YUHJ7ZKorTNUK1rcZvjQ-14" value="" style="endArrow=classic;html=1;rounded=0;exitX=0.5;exitY=1;exitDx=0;exitDy=0;" parent="1" edge="1">
          <mxGeometry width="50" height="50" relative="1" as="geometry">
            <mxPoint x="330" y="480" as="sourcePoint" />
            <mxPoint x="120" y="510" as="targetPoint" />
            <Array as="points">
              <mxPoint x="330" y="510" />
            </Array>
          </mxGeometry>
        </mxCell>
        <mxCell id="YUHJ7ZKorTNUK1rcZvjQ-15" value="Да" style="text;html=1;align=center;verticalAlign=middle;resizable=0;points=[];autosize=1;strokeColor=none;fillColor=none;" parent="1" vertex="1">
          <mxGeometry x="195" y="260" width="40" height="30" as="geometry" />
        </mxCell>
        <mxCell id="YUHJ7ZKorTNUK1rcZvjQ-16" value="Status := False;" style="rounded=0;whiteSpace=wrap;html=1;" parent="1" vertex="1">
          <mxGeometry x="250" y="420" width="160" height="60" as="geometry" />
        </mxCell>
        <mxCell id="YUHJ7ZKorTNUK1rcZvjQ-17" style="edgeStyle=orthogonalEdgeStyle;rounded=0;orthogonalLoop=1;jettySize=auto;html=1;entryX=0.5;entryY=0;entryDx=0;entryDy=0;endArrow=none;endFill=0;" parent="1" source="YUHJ7ZKorTNUK1rcZvjQ-19" target="YUHJ7ZKorTNUK1rcZvjQ-20" edge="1">
          <mxGeometry relative="1" as="geometry" />
        </mxCell>
        <mxCell id="YUHJ7ZKorTNUK1rcZvjQ-18" style="edgeStyle=orthogonalEdgeStyle;rounded=0;orthogonalLoop=1;jettySize=auto;html=1;entryX=0.5;entryY=0;entryDx=0;entryDy=0;endArrow=none;endFill=0;" parent="1" source="YUHJ7ZKorTNUK1rcZvjQ-19" edge="1">
          <mxGeometry relative="1" as="geometry">
            <mxPoint x="120" y="730" as="targetPoint" />
          </mxGeometry>
        </mxCell>
        <mxCell id="YUHJ7ZKorTNUK1rcZvjQ-19" value="" style="rhombus;whiteSpace=wrap;html=1;" parent="1" vertex="1">
          <mxGeometry x="40" y="540" width="160" height="60" as="geometry" />
        </mxCell>
        <mxCell id="YUHJ7ZKorTNUK1rcZvjQ-20" value="Status := False;" style="rounded=0;whiteSpace=wrap;html=1;" parent="1" vertex="1">
          <mxGeometry x="250" y="625" width="160" height="60" as="geometry" />
        </mxCell>
        <mxCell id="YUHJ7ZKorTNUK1rcZvjQ-21" value="" style="endArrow=classic;html=1;rounded=0;exitX=0.5;exitY=1;exitDx=0;exitDy=0;" parent="1" edge="1">
          <mxGeometry width="50" height="50" relative="1" as="geometry">
            <mxPoint x="330" y="685" as="sourcePoint" />
            <mxPoint x="120" y="705" as="targetPoint" />
            <Array as="points">
              <mxPoint x="330" y="705" />
            </Array>
          </mxGeometry>
        </mxCell>
        <mxCell id="YUHJ7ZKorTNUK1rcZvjQ-22" value="Да" style="text;html=1;align=center;verticalAlign=middle;resizable=0;points=[];autosize=1;strokeColor=none;fillColor=none;" parent="1" vertex="1">
          <mxGeometry x="195" y="540" width="40" height="30" as="geometry" />
        </mxCell>
        <mxCell id="YUHJ7ZKorTNUK1rcZvjQ-23" value="&lt;div&gt;&amp;nbsp; &amp;nbsp; CloseFile(InFile);&lt;/div&gt;&lt;div&gt;&amp;nbsp; &amp;nbsp; InputSize := Size;&lt;/div&gt;" style="rounded=0;whiteSpace=wrap;html=1;" parent="1" vertex="1">
          <mxGeometry x="40" y="725" width="160" height="60" as="geometry" />
        </mxCell>
        <mxCell id="YUHJ7ZKorTNUK1rcZvjQ-24" style="edgeStyle=orthogonalEdgeStyle;rounded=0;orthogonalLoop=1;jettySize=auto;html=1;entryX=0.5;entryY=0;entryDx=0;entryDy=0;endArrow=none;endFill=0;" parent="1" source="YUHJ7ZKorTNUK1rcZvjQ-25" target="YUHJ7ZKorTNUK1rcZvjQ-27" edge="1">
          <mxGeometry relative="1" as="geometry" />
        </mxCell>
        <mxCell id="YUHJ7ZKorTNUK1rcZvjQ-25" value="Function TFileReader.InputArray(Const SIZE: Integer): TArray;" style="rounded=1;whiteSpace=wrap;html=1;arcSize=50;" parent="1" vertex="1">
          <mxGeometry x="440" y="20" width="160" height="60" as="geometry" />
        </mxCell>
        <mxCell id="YUHJ7ZKorTNUK1rcZvjQ-26" style="edgeStyle=orthogonalEdgeStyle;rounded=0;orthogonalLoop=1;jettySize=auto;html=1;entryX=0.5;entryY=0;entryDx=0;entryDy=0;endArrow=none;endFill=0;" parent="1" source="YUHJ7ZKorTNUK1rcZvjQ-27" target="YUHJ7ZKorTNUK1rcZvjQ-29" edge="1">
          <mxGeometry relative="1" as="geometry" />
        </mxCell>
        <mxCell id="YUHJ7ZKorTNUK1rcZvjQ-27" value="&lt;div&gt;&amp;nbsp; &amp;nbsp; SetLength(Arr, SIZE);&lt;/div&gt;&lt;div&gt;&amp;nbsp; &amp;nbsp; Reset(InFile);&lt;/div&gt;" style="rounded=0;whiteSpace=wrap;html=1;" parent="1" vertex="1">
          <mxGeometry x="440" y="100" width="160" height="60" as="geometry" />
        </mxCell>
        <mxCell id="YUHJ7ZKorTNUK1rcZvjQ-28" style="edgeStyle=orthogonalEdgeStyle;rounded=0;orthogonalLoop=1;jettySize=auto;html=1;entryX=0.5;entryY=0;entryDx=0;entryDy=0;endArrow=none;endFill=0;" parent="1" source="YUHJ7ZKorTNUK1rcZvjQ-29" target="YUHJ7ZKorTNUK1rcZvjQ-35" edge="1">
          <mxGeometry relative="1" as="geometry" />
        </mxCell>
        <mxCell id="YUHJ7ZKorTNUK1rcZvjQ-29" value="A1&lt;br&gt;I := 1 To SIZE" style="shape=loopLimit;whiteSpace=wrap;html=1;" parent="1" vertex="1">
          <mxGeometry x="440" y="180" width="160" height="60" as="geometry" />
        </mxCell>
        <mxCell id="YUHJ7ZKorTNUK1rcZvjQ-30" value="" style="shape=loopLimit;whiteSpace=wrap;html=1;rotation=-180;" parent="1" vertex="1">
          <mxGeometry x="440" y="720" width="160" height="60" as="geometry" />
        </mxCell>
        <mxCell id="YUHJ7ZKorTNUK1rcZvjQ-31" style="edgeStyle=orthogonalEdgeStyle;rounded=0;orthogonalLoop=1;jettySize=auto;html=1;entryX=0.5;entryY=0;entryDx=0;entryDy=0;endArrow=none;endFill=0;" parent="1" source="YUHJ7ZKorTNUK1rcZvjQ-32" target="YUHJ7ZKorTNUK1rcZvjQ-46" edge="1">
          <mxGeometry relative="1" as="geometry" />
        </mxCell>
        <mxCell id="YUHJ7ZKorTNUK1rcZvjQ-32" value="I&lt;br&gt;A1" style="text;html=1;strokeColor=none;fillColor=none;align=center;verticalAlign=middle;whiteSpace=wrap;rounded=0;" parent="1" vertex="1">
          <mxGeometry x="440" y="720" width="160" height="60" as="geometry" />
        </mxCell>
        <mxCell id="YUHJ7ZKorTNUK1rcZvjQ-33" style="edgeStyle=orthogonalEdgeStyle;rounded=0;orthogonalLoop=1;jettySize=auto;html=1;entryX=0.5;entryY=0;entryDx=0;entryDy=0;endArrow=none;endFill=0;" parent="1" source="YUHJ7ZKorTNUK1rcZvjQ-35" target="YUHJ7ZKorTNUK1rcZvjQ-44" edge="1">
          <mxGeometry relative="1" as="geometry" />
        </mxCell>
        <mxCell id="YUHJ7ZKorTNUK1rcZvjQ-34" style="edgeStyle=orthogonalEdgeStyle;rounded=0;orthogonalLoop=1;jettySize=auto;html=1;endArrow=none;endFill=0;" parent="1" source="YUHJ7ZKorTNUK1rcZvjQ-35" target="YUHJ7ZKorTNUK1rcZvjQ-32" edge="1">
          <mxGeometry relative="1" as="geometry" />
        </mxCell>
        <mxCell id="YUHJ7ZKorTNUK1rcZvjQ-35" value="Status" style="rhombus;whiteSpace=wrap;html=1;" parent="1" vertex="1">
          <mxGeometry x="440" y="260" width="160" height="60" as="geometry" />
        </mxCell>
        <mxCell id="YUHJ7ZKorTNUK1rcZvjQ-36" style="edgeStyle=orthogonalEdgeStyle;rounded=0;orthogonalLoop=1;jettySize=auto;html=1;entryX=0.5;entryY=0;entryDx=0;entryDy=0;endArrow=none;endFill=0;" parent="1" source="YUHJ7ZKorTNUK1rcZvjQ-37" target="YUHJ7ZKorTNUK1rcZvjQ-39" edge="1">
          <mxGeometry relative="1" as="geometry">
            <mxPoint x="905" y="490" as="targetPoint" />
          </mxGeometry>
        </mxCell>
        <mxCell id="YUHJ7ZKorTNUK1rcZvjQ-37" value="Except" style="rhombus;whiteSpace=wrap;html=1;" parent="1" vertex="1">
          <mxGeometry x="620" y="430" width="160" height="60" as="geometry" />
        </mxCell>
        <mxCell id="YUHJ7ZKorTNUK1rcZvjQ-38" style="edgeStyle=orthogonalEdgeStyle;rounded=0;orthogonalLoop=1;jettySize=auto;html=1;entryX=0.5;entryY=0;entryDx=0;entryDy=0;endArrow=none;endFill=0;" parent="1" source="YUHJ7ZKorTNUK1rcZvjQ-39" target="YUHJ7ZKorTNUK1rcZvjQ-42" edge="1">
          <mxGeometry relative="1" as="geometry" />
        </mxCell>
        <mxCell id="YUHJ7ZKorTNUK1rcZvjQ-39" value="Вывод о некорректном вводе" style="shape=parallelogram;perimeter=parallelogramPerimeter;whiteSpace=wrap;html=1;fixedSize=1;" parent="1" vertex="1">
          <mxGeometry x="830" y="510" width="160" height="60" as="geometry" />
        </mxCell>
        <mxCell id="YUHJ7ZKorTNUK1rcZvjQ-40" value="" style="endArrow=classic;html=1;rounded=0;exitX=0.5;exitY=1;exitDx=0;exitDy=0;" parent="1" edge="1">
          <mxGeometry width="50" height="50" relative="1" as="geometry">
            <mxPoint x="910" y="650" as="sourcePoint" />
            <mxPoint x="700" y="680" as="targetPoint" />
            <Array as="points">
              <mxPoint x="910" y="680" />
            </Array>
          </mxGeometry>
        </mxCell>
        <mxCell id="YUHJ7ZKorTNUK1rcZvjQ-41" value="Да" style="text;html=1;align=center;verticalAlign=middle;resizable=0;points=[];autosize=1;strokeColor=none;fillColor=none;" parent="1" vertex="1">
          <mxGeometry x="775" y="430" width="40" height="30" as="geometry" />
        </mxCell>
        <mxCell id="YUHJ7ZKorTNUK1rcZvjQ-42" value="Status := False;" style="rounded=0;whiteSpace=wrap;html=1;" parent="1" vertex="1">
          <mxGeometry x="830" y="590" width="160" height="60" as="geometry" />
        </mxCell>
        <mxCell id="YUHJ7ZKorTNUK1rcZvjQ-43" style="edgeStyle=orthogonalEdgeStyle;rounded=0;orthogonalLoop=1;jettySize=auto;html=1;entryX=0.5;entryY=0;entryDx=0;entryDy=0;endArrow=none;endFill=0;" parent="1" source="YUHJ7ZKorTNUK1rcZvjQ-44" target="YUHJ7ZKorTNUK1rcZvjQ-37" edge="1">
          <mxGeometry relative="1" as="geometry" />
        </mxCell>
        <mxCell id="YUHJ7ZKorTNUK1rcZvjQ-44" value="Read(InFile, Size);" style="shape=parallelogram;perimeter=parallelogramPerimeter;whiteSpace=wrap;html=1;fixedSize=1;" parent="1" vertex="1">
          <mxGeometry x="620" y="350" width="160" height="60" as="geometry" />
        </mxCell>
        <mxCell id="YUHJ7ZKorTNUK1rcZvjQ-45" style="edgeStyle=orthogonalEdgeStyle;rounded=0;orthogonalLoop=1;jettySize=auto;html=1;entryX=0.5;entryY=0;entryDx=0;entryDy=0;endArrow=none;endFill=0;" parent="1" source="YUHJ7ZKorTNUK1rcZvjQ-46" target="YUHJ7ZKorTNUK1rcZvjQ-48" edge="1">
          <mxGeometry relative="1" as="geometry" />
        </mxCell>
        <mxCell id="YUHJ7ZKorTNUK1rcZvjQ-46" value="&lt;div&gt;&amp;nbsp; &amp;nbsp; CloseFile(InFile);&lt;/div&gt;&lt;div&gt;&amp;nbsp; &amp;nbsp; InputSize := Size;&lt;/div&gt;" style="rounded=0;whiteSpace=wrap;html=1;" parent="1" vertex="1">
          <mxGeometry x="440" y="800" width="160" height="60" as="geometry" />
        </mxCell>
        <mxCell id="YUHJ7ZKorTNUK1rcZvjQ-47" value="Да" style="text;html=1;align=center;verticalAlign=middle;resizable=0;points=[];autosize=1;strokeColor=none;fillColor=none;" parent="1" vertex="1">
          <mxGeometry x="600" y="260" width="40" height="30" as="geometry" />
        </mxCell>
        <mxCell id="YUHJ7ZKorTNUK1rcZvjQ-48" value="Конец" style="rounded=1;whiteSpace=wrap;html=1;arcSize=50;" parent="1" vertex="1">
          <mxGeometry x="440" y="880" width="160" height="60" as="geometry" />
        </mxCell>
        <mxCell id="YUHJ7ZKorTNUK1rcZvjQ-49" value="" style="endArrow=classic;html=1;rounded=0;exitX=0.5;exitY=1;exitDx=0;exitDy=0;" parent="1" source="YUHJ7ZKorTNUK1rcZvjQ-37" edge="1">
          <mxGeometry width="50" height="50" relative="1" as="geometry">
            <mxPoint x="730" y="685" as="sourcePoint" />
            <mxPoint x="520" y="700" as="targetPoint" />
            <Array as="points">
              <mxPoint x="700" y="700" />
            </Array>
          </mxGeometry>
        </mxCell>
        <mxCell id="YUHJ7ZKorTNUK1rcZvjQ-50" value="" style="strokeWidth=1;html=1;shape=mxgraph.flowchart.annotation_2;align=left;labelPosition=right;pointerEvents=1;rotation=-180;" parent="1" vertex="1">
          <mxGeometry x="-30" y="535" width="30" height="70" as="geometry" />
        </mxCell>
        <mxCell id="YUHJ7ZKorTNUK1rcZvjQ-51" style="edgeStyle=orthogonalEdgeStyle;rounded=0;orthogonalLoop=1;jettySize=auto;html=1;entryX=0;entryY=0.5;entryDx=0;entryDy=0;entryPerimeter=0;dashed=1;endArrow=none;endFill=0;dashPattern=8 8;" parent="1" source="YUHJ7ZKorTNUK1rcZvjQ-19" target="YUHJ7ZKorTNUK1rcZvjQ-50" edge="1">
          <mxGeometry relative="1" as="geometry" />
        </mxCell>
        <mxCell id="YUHJ7ZKorTNUK1rcZvjQ-52" value="(Size &amp;lt; MIN_SIZE) Or (MAX_SIZE &amp;lt; Size)" style="text;html=1;strokeColor=none;fillColor=none;align=center;verticalAlign=middle;whiteSpace=wrap;rounded=0;" parent="1" vertex="1">
          <mxGeometry x="-160" y="535" width="140" height="75" as="geometry" />
        </mxCell>
      </root>
    </mxGraphModel>
  </diagram>
  <diagram id="5J_HY4wgTzYgvBgaujuA" name="Page-3">
    <mxGraphModel dx="2074" dy="1124" grid="1" gridSize="10" guides="1" tooltips="1" connect="1" arrows="1" fold="1" page="1" pageScale="1" pageWidth="827" pageHeight="1169" math="0" shadow="0">
      <root>
        <mxCell id="0" />
        <mxCell id="1" parent="0" />
        <mxCell id="dnE8L6_1aTgKuX4LXApY-9" style="edgeStyle=orthogonalEdgeStyle;rounded=0;orthogonalLoop=1;jettySize=auto;html=1;entryX=0.5;entryY=0;entryDx=0;entryDy=0;endArrow=none;endFill=0;" parent="1" source="i-bk8SCniEqLWKEF3Xje-1" target="dnE8L6_1aTgKuX4LXApY-1" edge="1">
          <mxGeometry relative="1" as="geometry" />
        </mxCell>
        <mxCell id="i-bk8SCniEqLWKEF3Xje-1" value="Procedure TuVCLOutputSortedArray.&lt;br&gt;FormCreate(Sender: TObject);" style="rounded=1;whiteSpace=wrap;html=1;arcSize=50;" parent="1" vertex="1">
          <mxGeometry x="40" y="40" width="150" height="60" as="geometry" />
        </mxCell>
        <mxCell id="dnE8L6_1aTgKuX4LXApY-10" style="edgeStyle=orthogonalEdgeStyle;rounded=0;orthogonalLoop=1;jettySize=auto;html=1;entryX=0.5;entryY=0;entryDx=0;entryDy=0;endArrow=none;endFill=0;" parent="1" source="dnE8L6_1aTgKuX4LXApY-1" target="dnE8L6_1aTgKuX4LXApY-2" edge="1">
          <mxGeometry relative="1" as="geometry" />
        </mxCell>
        <mxCell id="dnE8L6_1aTgKuX4LXApY-1" value="&lt;div&gt;SortedArray := ArraySorter.GetArray();&lt;/div&gt;&lt;div&gt;Size := Length(SortedArray);&lt;/div&gt;" style="rounded=0;whiteSpace=wrap;html=1;" parent="1" vertex="1">
          <mxGeometry x="40" y="120" width="150" height="60" as="geometry" />
        </mxCell>
        <mxCell id="dnE8L6_1aTgKuX4LXApY-12" style="edgeStyle=orthogonalEdgeStyle;rounded=0;orthogonalLoop=1;jettySize=auto;html=1;entryX=0.5;entryY=0;entryDx=0;entryDy=0;endArrow=none;endFill=0;" parent="1" source="dnE8L6_1aTgKuX4LXApY-2" target="dnE8L6_1aTgKuX4LXApY-3" edge="1">
          <mxGeometry relative="1" as="geometry" />
        </mxCell>
        <mxCell id="dnE8L6_1aTgKuX4LXApY-2" value="&lt;div&gt;ElementsOfNewArray.&lt;/div&gt;&lt;div&gt;ColCount := Size + 1;&lt;span style=&quot;background-color: initial;&quot;&gt;&amp;nbsp; &amp;nbsp; ElementsOfNewArray.&lt;/span&gt;&lt;/div&gt;&lt;div&gt;&lt;span style=&quot;background-color: initial;&quot;&gt;RowCount := 2;&lt;/span&gt;&lt;/div&gt;" style="rounded=0;whiteSpace=wrap;html=1;" parent="1" vertex="1">
          <mxGeometry x="40" y="200" width="150" height="60" as="geometry" />
        </mxCell>
        <mxCell id="dnE8L6_1aTgKuX4LXApY-11" style="edgeStyle=orthogonalEdgeStyle;rounded=0;orthogonalLoop=1;jettySize=auto;html=1;entryX=0.5;entryY=0;entryDx=0;entryDy=0;endArrow=none;endFill=0;" parent="1" source="dnE8L6_1aTgKuX4LXApY-3" target="dnE8L6_1aTgKuX4LXApY-4" edge="1">
          <mxGeometry relative="1" as="geometry" />
        </mxCell>
        <mxCell id="dnE8L6_1aTgKuX4LXApY-3" value="&lt;div&gt;ElementsOfNewArray.&lt;/div&gt;&lt;div&gt;FixedCols := 1;&lt;span style=&quot;background-color: initial;&quot;&gt;&amp;nbsp; &amp;nbsp; ElementsOfNewArray.&lt;/span&gt;&lt;/div&gt;&lt;div&gt;&lt;span style=&quot;background-color: initial;&quot;&gt;FixedRows := 1;&lt;/span&gt;&lt;/div&gt;" style="rounded=0;whiteSpace=wrap;html=1;" parent="1" vertex="1">
          <mxGeometry x="40" y="280" width="150" height="60" as="geometry" />
        </mxCell>
        <mxCell id="dnE8L6_1aTgKuX4LXApY-13" style="edgeStyle=orthogonalEdgeStyle;rounded=0;orthogonalLoop=1;jettySize=auto;html=1;entryX=0.5;entryY=0;entryDx=0;entryDy=0;endArrow=none;endFill=0;" parent="1" source="dnE8L6_1aTgKuX4LXApY-4" target="dnE8L6_1aTgKuX4LXApY-5" edge="1">
          <mxGeometry relative="1" as="geometry" />
        </mxCell>
        <mxCell id="dnE8L6_1aTgKuX4LXApY-4" value="&lt;div&gt;ElementsOfNewArray.&lt;/div&gt;&lt;div&gt;Cells[0, 0] := &#39;№&#39;;&lt;span style=&quot;background-color: initial;&quot;&gt;&amp;nbsp; &amp;nbsp; ElementsOfNewArray.&lt;/span&gt;&lt;/div&gt;&lt;div&gt;&lt;span style=&quot;background-color: initial;&quot;&gt;Cells[0, 1] := &#39;Элемент&#39;;&lt;/span&gt;&lt;/div&gt;" style="rounded=0;whiteSpace=wrap;html=1;" parent="1" vertex="1">
          <mxGeometry x="40" y="360" width="150" height="60" as="geometry" />
        </mxCell>
        <mxCell id="dnE8L6_1aTgKuX4LXApY-14" style="edgeStyle=orthogonalEdgeStyle;rounded=0;orthogonalLoop=1;jettySize=auto;html=1;entryX=0.5;entryY=0;entryDx=0;entryDy=0;endArrow=none;endFill=0;" parent="1" source="dnE8L6_1aTgKuX4LXApY-5" target="dnE8L6_1aTgKuX4LXApY-8" edge="1">
          <mxGeometry relative="1" as="geometry" />
        </mxCell>
        <mxCell id="dnE8L6_1aTgKuX4LXApY-5" value="A1&lt;br&gt;I := 1 To Size" style="shape=loopLimit;whiteSpace=wrap;html=1;" parent="1" vertex="1">
          <mxGeometry x="40" y="440" width="150" height="60" as="geometry" />
        </mxCell>
        <mxCell id="dnE8L6_1aTgKuX4LXApY-6" value="" style="shape=loopLimit;whiteSpace=wrap;html=1;rotation=-180;" parent="1" vertex="1">
          <mxGeometry x="40" y="600" width="150" height="60" as="geometry" />
        </mxCell>
        <mxCell id="dnE8L6_1aTgKuX4LXApY-17" style="edgeStyle=orthogonalEdgeStyle;rounded=0;orthogonalLoop=1;jettySize=auto;html=1;entryX=0.5;entryY=0;entryDx=0;entryDy=0;endArrow=none;endFill=0;" parent="1" source="dnE8L6_1aTgKuX4LXApY-7" target="dnE8L6_1aTgKuX4LXApY-16" edge="1">
          <mxGeometry relative="1" as="geometry" />
        </mxCell>
        <mxCell id="dnE8L6_1aTgKuX4LXApY-7" value="I&lt;br&gt;A1" style="text;html=1;strokeColor=none;fillColor=none;align=center;verticalAlign=middle;whiteSpace=wrap;rounded=0;" parent="1" vertex="1">
          <mxGeometry x="40" y="600" width="150" height="60" as="geometry" />
        </mxCell>
        <mxCell id="dnE8L6_1aTgKuX4LXApY-15" style="edgeStyle=orthogonalEdgeStyle;rounded=0;orthogonalLoop=1;jettySize=auto;html=1;entryX=0.5;entryY=0;entryDx=0;entryDy=0;endArrow=none;endFill=0;" parent="1" source="dnE8L6_1aTgKuX4LXApY-8" target="dnE8L6_1aTgKuX4LXApY-7" edge="1">
          <mxGeometry relative="1" as="geometry" />
        </mxCell>
        <mxCell id="dnE8L6_1aTgKuX4LXApY-8" value="&lt;div&gt;&lt;font style=&quot;font-size: 10px;&quot;&gt;ElementsOfNewArray.&lt;/font&gt;&lt;/div&gt;&lt;div&gt;&lt;font style=&quot;font-size: 10px;&quot;&gt;Cells[I, 0] := IntToStr(I);&lt;span style=&quot;background-color: initial;&quot;&gt;&amp;nbsp; &amp;nbsp; &amp;nbsp; &amp;nbsp; ElementsOfNewArray.&lt;/span&gt;&lt;span style=&quot;background-color: initial;&quot;&gt;Cells[I, 1] := IntToStr(SortedArray[I - 1]);&lt;/span&gt;&lt;/font&gt;&lt;/div&gt;" style="rounded=0;whiteSpace=wrap;html=1;" parent="1" vertex="1">
          <mxGeometry x="40" y="520" width="150" height="60" as="geometry" />
        </mxCell>
        <mxCell id="dnE8L6_1aTgKuX4LXApY-16" value="Конец" style="rounded=1;whiteSpace=wrap;html=1;arcSize=50;" parent="1" vertex="1">
          <mxGeometry x="40" y="680" width="150" height="60" as="geometry" />
        </mxCell>
      </root>
    </mxGraphModel>
  </diagram>
  <diagram id="bbR30sHooGpLNkg_bl9d" name="Page-4">
    <mxGraphModel dx="2074" dy="1124" grid="1" gridSize="10" guides="1" tooltips="1" connect="1" arrows="1" fold="1" page="1" pageScale="1" pageWidth="827" pageHeight="1169" math="0" shadow="0">
      <root>
        <mxCell id="0" />
        <mxCell id="1" parent="0" />
      </root>
    </mxGraphModel>
  </diagram>
</mxfile>
